<?xml version="1.0" encoding="UTF-8" standalone="no" ?>
<!DOCTYPE svg PUBLIC "-//W3C//DTD SVG 1.1//EN" "http://www.w3.org/Graphics/SVG/1.1/DTD/svg11.dtd">
<svg xmlns="http://www.w3.org/2000/svg" xmlns:xlink="http://www.w3.org/1999/xlink" version="1.1" width="200" height="200" viewBox="0 0 200 200" xml:space="preserve">
<desc>Created with Fabric.js 5.3.0</desc>
<defs>
</defs>
<g transform="matrix(2.4186540689 0 0 2.4186540689 80.5243608867 109.5874741278)" id="tCMWQqeiLc9qJc_KrMYwN"  >
<path style="stroke: rgb(114,138,227); stroke-width: 0; stroke-dasharray: none; stroke-linecap: butt; stroke-dashoffset: 0; stroke-linejoin: miter; stroke-miterlimit: 4; fill: rgb(255,255,255); fill-opacity: 0; fill-rule: nonzero; opacity: 1;"  transform=" translate(0, 0)" d="M -9.72763 -9.72763 L 9.72762 -9.72763 L 9.72762 9.72762 L -9.72763 9.72762 z" stroke-linecap="round" />
</g>
<g transform="matrix(-2.6745466234 2.6745466234 -0.2178176637 -0.2178176637 55.6680534906 55.7393197999)" id="TrX3U1wLDeKYM9eAK_9kj"  >
<path style="stroke: rgb(249,232,108); stroke-width: 0; stroke-dasharray: none; stroke-linecap: butt; stroke-dashoffset: 0; stroke-linejoin: miter; stroke-miterlimit: 4; fill: rgb(53,237,53); fill-rule: nonzero; opacity: 1;"  transform=" translate(0, 0)" d="M -17.2179 -17.2179 L 17.217889999999997 -17.2179 L 17.217889999999997 17.217889999999997 L -17.2179 17.217889999999997 z" stroke-linecap="round" />
</g>
<g transform="matrix(2.6745466235 2.6745466235 -0.1949201413 0.1949201413 57.0459473546 142.485689994)" id="yDcw3YaM6hiKgjxzYxT1w"  >
<path style="stroke: rgb(249,232,108); stroke-width: 0; stroke-dasharray: none; stroke-linecap: butt; stroke-dashoffset: 0; stroke-linejoin: miter; stroke-miterlimit: 4; fill: rgb(53,237,53); fill-rule: nonzero; opacity: 1;"  transform=" translate(0, 0)" d="M -17.2179 -17.2179 L 17.217889999999997 -17.2179 L 17.217889999999997 17.217889999999997 L -17.2179 17.217889999999997 z" stroke-linecap="round" />
</g>
<g transform="matrix(2.6745466235 2.6745466235 -0.1684013749 0.1684013749 142.6417925869 55.6471927931)" id="hudD8iwqjl8CfclObAsLb"  >
<path style="stroke: rgb(249,232,108); stroke-width: 0; stroke-dasharray: none; stroke-linecap: butt; stroke-dashoffset: 0; stroke-linejoin: miter; stroke-miterlimit: 4; fill: rgb(53,237,53); fill-rule: nonzero; opacity: 1;"  transform=" translate(0, 0)" d="M -17.2179 -17.2179 L 17.217889999999997 -17.2179 L 17.217889999999997 17.217889999999997 L -17.2179 17.217889999999997 z" stroke-linecap="round" />
</g>
<g transform="matrix(-2.6745466235 2.6745466235 -0.1934437935 -0.1934437935 144.7516132459 144.6803469366)" id="oZ3MZBqH0dX1kBTE4UOO4"  >
<path style="stroke: rgb(249,232,108); stroke-width: 0; stroke-dasharray: none; stroke-linecap: butt; stroke-dashoffset: 0; stroke-linejoin: miter; stroke-miterlimit: 4; fill: rgb(53,237,53); fill-rule: nonzero; opacity: 1;"  transform=" translate(0, 0)" d="M -17.2179 -17.2179 L 17.217889999999997 -17.2179 L 17.217889999999997 17.217889999999997 L -17.2179 17.217889999999997 z" stroke-linecap="round" />
</g>
<g transform="matrix(-1.7196109264 1.7196109264 -0.1596155762 -0.1596155762 74.4958910816 71.9379039353)" id="LIfKmxEmj-5vsCWC3F-4e"  >
<path style="stroke: rgb(249,232,108); stroke-width: 0; stroke-dasharray: none; stroke-linecap: butt; stroke-dashoffset: 0; stroke-linejoin: miter; stroke-miterlimit: 4; fill: rgb(53,237,53); fill-rule: nonzero; opacity: 1;"  transform=" translate(0, 0)" d="M -17.2179 -17.2179 L 17.217889999999997 -17.2179 L 17.217889999999997 17.217889999999997 L -17.2179 17.217889999999997 z" stroke-linecap="round" />
</g>
<g transform="matrix(-1.7196109264 1.7196109264 -0.1596155762 -0.1596155762 112.8806854895 109.5874741278)" id="RSov3Y094Mr92VwZSM3bK"  >
<path style="stroke: rgb(249,232,108); stroke-width: 0; stroke-dasharray: none; stroke-linecap: butt; stroke-dashoffset: 0; stroke-linejoin: miter; stroke-miterlimit: 4; fill: rgb(53,237,53); fill-rule: nonzero; opacity: 1;"  transform=" translate(0, 0)" d="M -17.2179 -17.2179 L 17.217889999999997 -17.2179 L 17.217889999999997 17.217889999999997 L -17.2179 17.217889999999997 z" stroke-linecap="round" />
</g>
<g transform="matrix(-1.1374694272 1.1374694272 -0.1596155762 -0.1596155762 102.8574363895 83.2066735933)" id="9odrXTAAheb_kLQPDr86q"  >
<path style="stroke: rgb(249,232,108); stroke-width: 0; stroke-dasharray: none; stroke-linecap: butt; stroke-dashoffset: 0; stroke-linejoin: miter; stroke-miterlimit: 4; fill: rgb(53,237,53); fill-rule: nonzero; opacity: 1;"  transform=" translate(0, 0)" d="M -17.2179 -17.2179 L 17.217889999999997 -17.2179 L 17.217889999999997 17.217889999999997 L -17.2179 17.217889999999997 z" stroke-linecap="round" />
</g>
<g transform="matrix(1.119478025 1.119478025 -0.1596155762 0.1596155762 64.162864823 115.1028092693)" id="Hk4lWQXnFKH6GjScDmYAa"  >
<path style="stroke: rgb(249,232,108); stroke-width: 0; stroke-dasharray: none; stroke-linecap: butt; stroke-dashoffset: 0; stroke-linejoin: miter; stroke-miterlimit: 4; fill: rgb(53,237,53); fill-rule: nonzero; opacity: 1;"  transform=" translate(0, 0)" d="M -17.2179 -17.2179 L 17.217889999999997 -17.2179 L 17.217889999999997 17.217889999999997 L -17.2179 17.217889999999997 z" stroke-linecap="round" />
</g>
<g transform="matrix(-1.5963488932 1.5963488932 -0.1596155762 -0.1596155762 129.16086038 125.5335991275)" id="1isqRI_yQASU88htRZJ3L"  >
<path style="stroke: rgb(249,232,108); stroke-width: 0; stroke-dasharray: none; stroke-linecap: butt; stroke-dashoffset: 0; stroke-linejoin: miter; stroke-miterlimit: 4; fill: rgb(53,237,53); fill-rule: nonzero; opacity: 1;"  transform=" translate(0, 0)" d="M -17.2179 -17.2179 L 17.217889999999997 -17.2179 L 17.217889999999997 17.217889999999997 L -17.2179 17.217889999999997 z" stroke-linecap="round" />
</g>
<g transform="matrix(0.5743921516 0.5743921516 -0.1596155762 0.1596155762 113.1561374829 57.2233323195)" id="aEev1Fm6p86kGosHzG_gR"  >
<path style="stroke: rgb(249,232,108); stroke-width: 0; stroke-dasharray: none; stroke-linecap: butt; stroke-dashoffset: 0; stroke-linejoin: miter; stroke-miterlimit: 4; fill: rgb(53,237,53); fill-rule: nonzero; opacity: 1;"  transform=" translate(0, 0)" d="M -17.2179 -17.2179 L 17.217889999999997 -17.2179 L 17.217889999999997 17.217889999999997 L -17.2179 17.217889999999997 z" stroke-linecap="round" />
</g>
<g transform="matrix(1.5069242138 1.5069242138 -0.1596155762 0.1596155762 109.8382203672 123.9938915341)" id="0I2sgCWtpVw6iJWgqa3jy"  >
<path style="stroke: rgb(249,232,108); stroke-width: 0; stroke-dasharray: none; stroke-linecap: butt; stroke-dashoffset: 0; stroke-linejoin: miter; stroke-miterlimit: 4; fill: rgb(53,237,53); fill-rule: nonzero; opacity: 1;"  transform=" translate(0, 0)" d="M -17.2179 -17.2179 L 17.217889999999997 -17.2179 L 17.217889999999997 17.217889999999997 L -17.2179 17.217889999999997 z" stroke-linecap="round" />
</g>
<g transform="matrix(0.5743921516 0.5743921516 -0.1596155762 0.1596155762 113.156136291 157.3184149234)" id="v50zXAIR-Y9qZZA_tnnOj"  >
<path style="stroke: rgb(249,232,108); stroke-width: 0; stroke-dasharray: none; stroke-linecap: butt; stroke-dashoffset: 0; stroke-linejoin: miter; stroke-miterlimit: 4; fill: rgb(53,237,53); fill-rule: nonzero; opacity: 1;"  transform=" translate(0, 0)" d="M -17.2179 -17.2179 L 17.217889999999997 -17.2179 L 17.217889999999997 17.217889999999997 L -17.2179 17.217889999999997 z" stroke-linecap="round" />
</g>
<g transform="matrix(0.5743921516 0.5743921516 -0.1596155762 0.1596155762 149.2768253464 91.6561636059)" id="WespexNIDufVXv7finPOU"  >
<path style="stroke: rgb(249,232,108); stroke-width: 0; stroke-dasharray: none; stroke-linecap: butt; stroke-dashoffset: 0; stroke-linejoin: miter; stroke-miterlimit: 4; fill: rgb(53,237,53); fill-rule: nonzero; opacity: 1;"  transform=" translate(0, 0)" d="M -17.2179 -17.2179 L 17.217889999999997 -17.2179 L 17.217889999999997 17.217889999999997 L -17.2179 17.217889999999997 z" stroke-linecap="round" />
</g>
</svg>